<svg width="63" height="54" viewBox="0 0 63 54" fill="none" xmlns="http://www.w3.org/2000/svg">
<path d="M20.2494 24.1747C23.8704 21.8362 26.2674 17.7649 26.2674 13.1337C26.2674 12.2843 26.1868 11.4537 26.0328 10.6491C21.9064 12.5726 19.0465 16.7576 19.0465 21.6105C19.0465 25.0302 20.4667 28.1183 22.7495 30.3171C23.3844 29.8619 24.0579 29.4572 24.7642 29.1085C23.7077 27.1007 22.1465 25.3999 20.2494 24.1747Z" fill="#0F355C"/>
<path d="M25.6543 31.238C25.309 31.4136 24.9732 31.6053 24.648 31.812C25.08 32.0873 25.5308 32.3359 25.9979 32.5555C25.9057 32.1076 25.7908 31.668 25.6543 31.238Z" fill="#0F355C"/>
<path d="M37.098 32.1261C37.1422 31.943 37.1901 31.7615 37.2418 31.5815C37.3692 31.6561 37.4951 31.733 37.6195 31.812C37.4485 31.9209 37.2747 32.0257 37.098 32.1261Z" fill="#0F355C"/>
<path d="M26.2673 35.1563C25.0028 34.7019 23.8203 34.0756 22.748 33.3054C20.4661 35.4996 19.0465 38.5809 19.0465 41.993L19.0465 48.0608H26.2674V35.2157C26.2674 35.1959 26.2674 35.1761 26.2673 35.1563Z" fill="#0F355C"/>
<path d="M43.2209 48.0608H36.7326L36.7326 35.2157C36.7326 35.0995 36.7341 34.9837 36.7371 34.8682C37.7259 34.4498 38.6582 33.924 39.5194 33.3054C41.8013 35.4996 43.2209 38.5809 43.2209 41.993V48.0608Z" fill="#0F355C"/>
<path d="M16.7442 48.0608H3.57098C1.5953 48.0608 9.06601e-06 46.458 7.67357e-06 44.4823L0 35.2157C0 30.5845 2.39701 26.5132 6.01805 24.1747C2.39701 21.8362 0 17.7649 0 13.1337C0 5.88017 5.88017 0 13.1337 0C18.7228 0 23.4965 3.49114 25.393 8.41168C20.3028 10.6287 16.7442 15.704 16.7442 21.6105C16.7442 25.5968 18.3651 29.2045 20.9838 31.8104C18.3656 34.4112 16.7442 38.0121 16.7442 41.993L16.7442 48.0608Z" fill="#0F355C"/>
<path d="M37.4991 8.70183C39.3172 3.62894 44.168 6.44785e-07 49.8663 6.44785e-07C57.1198 6.44785e-07 63 5.88017 63 13.1337C63 17.7649 60.603 21.8362 56.9819 24.1747C60.603 26.5132 63 30.5845 63 35.2157V44.4828C63 46.4585 61.404 48.0608 59.4283 48.0608H45.5233V41.993C45.5233 38.0121 43.9019 34.4112 41.2836 31.8104C43.9023 29.2044 45.5232 25.5967 45.5232 21.6105C45.5232 15.9487 42.2534 11.0507 37.4991 8.70183Z" fill="#0F355C"/>
<path d="M36.9069 10.9885C40.6684 13.0372 43.2209 17.0257 43.2209 21.6105C43.2209 25.0302 41.8007 28.1183 39.518 30.3171C39.0587 29.9879 38.5793 29.685 38.0818 29.4107C39.1377 27.2713 40.759 25.4609 42.7506 24.1747C39.1296 21.8362 36.7326 17.7649 36.7326 13.1337C36.7326 12.4032 36.7922 11.6866 36.9069 10.9885Z" fill="#0F355C"/>
<path d="M37.6195 31.812C40.9871 29.6666 43.2209 25.8994 43.2209 21.6105C43.2209 14.9349 37.8093 9.52325 31.1337 9.52325C24.4581 9.52325 19.0465 14.9349 19.0465 21.6105C19.0465 25.8994 21.2803 29.6666 24.648 31.812C21.2803 33.9532 19.0465 37.7128 19.0465 41.993L19.0465 50.2127C19.0465 52.1884 20.6426 53.7907 22.6183 53.7907H39.6497C41.6254 53.7907 43.2209 52.1881 43.2209 50.2124V41.993C43.2209 37.7128 40.9871 33.9532 37.6195 31.812Z" fill="#00AEBB"/>
</svg>
