<svg width="721" height="144" viewBox="0 0 721 144" fill="none" xmlns="http://www.w3.org/2000/svg">
<path d="M296.076 54.2646H291.313V110.747H274.367V54.2926H251.076C250.98 54.2926 250.881 54.2726 250.78 54.2646H246V127.149H303.728C305.904 127.149 307.957 126.729 309.892 125.881C311.823 125.034 313.515 123.89 314.967 122.438C316.415 120.989 317.548 119.294 318.364 117.362C319.18 115.429 319.588 113.375 319.588 111.201V54.2926H296.387C296.287 54.2926 296.179 54.2726 296.076 54.2646Z" fill="#3F3B3A"/>
<path d="M338.235 75.3608H333.903V127.059H349.669C351.059 127.059 352.359 126.774 353.567 126.199C354.775 125.625 355.819 124.854 356.695 123.889C357.569 122.921 358.267 121.786 358.777 120.49C359.291 119.19 359.548 117.783 359.548 116.275V91.6235H371.783V127.059H387.64C388.969 127.059 390.241 126.774 391.447 126.199C392.655 125.625 393.697 124.854 394.577 123.889C395.449 122.921 396.144 121.786 396.66 120.49C397.173 119.19 397.429 117.783 397.429 116.275V75.4035H338.525C338.427 75.3968 338.335 75.3715 338.235 75.3608Z" fill="#3F3B3A"/>
<path d="M427.386 78.9389H411.745V127.038H424.249C426.425 127.038 428.477 126.631 430.413 125.815C432.346 125 434.037 123.866 435.486 122.416C436.937 120.967 438.07 119.276 438.886 117.342C439.699 115.41 440.11 113.354 440.11 111.178V78.8269H427.386V78.9389Z" fill="#3F3B3A"/>
<path d="M412.881 72.0979H433.907C436.022 72.0979 437.773 71.3726 439.163 69.9219C440.553 68.4726 441.249 66.7512 441.249 64.7579V56.3299H412.881V72.0979Z" fill="#3F3B3A"/>
<path d="M536.665 78.8153H531.719V127.038H544.229C546.405 127.038 548.458 126.63 550.393 125.815C552.322 125.001 554.015 123.866 555.467 122.417C556.915 120.966 558.049 119.277 558.863 117.342C559.681 115.409 560.09 113.353 560.09 111.177V78.8273H536.799C536.751 78.8273 536.71 78.8153 536.665 78.8153Z" fill="#3F3B3A"/>
<path d="M531.719 72.0979H552.747C554.861 72.0979 556.613 71.3726 558.002 69.9219C559.393 68.4726 560.09 66.7512 560.09 64.7579V56.3299H531.719V72.0979Z" fill="#3F3B3A"/>
<path d="M622.073 69.4012H641.825V54.0892H593.799V78.1932H574.223V94.4132H593.799V127.039H607.936C612.225 127.039 615.651 125.769 618.22 123.232C620.787 120.696 622.073 117.219 622.073 112.811V94.4132H644.909V78.1932H622.073V69.4012Z" fill="#3F3B3A"/>
<path d="M684.149 87.8894H699.282V93.6894H684.149V87.8894ZM713.331 105.924C715.385 105.924 717.123 105.244 718.539 103.884C719.961 102.525 720.67 100.817 720.67 98.7627V75.564H659.318V111.177C659.318 113.353 659.723 115.409 660.543 117.341C661.359 119.276 662.494 120.967 663.941 122.417C665.389 123.867 667.082 125 669.015 125.815C670.95 126.631 673.003 127.037 675.179 127.037H695.022H707.502H712.181C713.055 126.909 713.894 126.668 714.69 126.291C715.898 125.716 716.939 124.947 717.819 123.981C718.693 123.012 719.39 121.879 719.902 120.583C720.413 119.281 720.67 117.876 720.67 116.368V110.727H707.502H695.022H684.149V105.924H713.331Z" fill="#3F3B3A"/>
<path d="M505.701 110.727H491.76H489.134H482.789V53H473.214V53.0547H454.424V127.037H489.134H491.76H501.549C503.726 127.037 505.778 126.616 507.713 125.777C509.642 124.935 511.336 123.796 512.786 122.353C514.234 120.909 515.369 119.228 516.184 117.305C517.001 115.383 517.406 113.341 517.406 111.177V110.727H505.701Z" fill="#3F3B3A"/>
<path d="M170.158 71.8573C170.158 80.9599 172.888 89.4293 177.547 96.5253C182.078 86.4826 184.62 75.3546 184.62 63.6239V38.8559C175.751 47.0959 170.158 58.8213 170.158 71.8573Z" fill="#0F355C"/>
<path d="M31.5155 96.5253C36.1755 89.4293 38.9062 80.9599 38.9062 71.8573C38.9062 58.8213 33.3129 47.0959 24.4409 38.8559V63.6239C24.4409 75.3546 26.9835 86.4826 31.5155 96.5253Z" fill="#0F355C"/>
<path d="M209.058 61.0284C209.058 49.9231 200.889 40.7511 190.237 39.1338V63.6231C190.237 70.3418 189.433 76.8724 187.965 83.1498C199.71 82.5844 209.058 72.9124 209.058 61.0284Z" fill="#00AEBB"/>
<path d="M0 61.0284C0 49.9231 8.172 40.7511 18.828 39.1338V63.6231C18.828 70.3418 19.628 76.8724 21.096 83.1498C9.35467 82.5844 0 72.9124 0 61.0284Z" fill="#00AEBB"/>
<path d="M56.123 65.0427H67.7377V87.1333H56.123V65.0427ZM141.078 65.0427H152.692V87.1333H141.078V65.0427ZM176.939 4.57764e-05C164.335 1.10405 149.707 7.48938 141.435 19.104C131.408 33.188 131.619 43.3214 131.276 48.0534C130.932 52.7828 130.659 59.6468 122.98 67.4348C115.296 75.2228 104.31 74.7961 104.31 74.7961C104.31 74.7961 93.319 75.2228 85.6404 67.4348C77.955 59.6468 77.6844 52.7828 77.3404 48.0534C76.9951 43.3214 77.2084 33.188 67.1777 19.104C58.907 7.48938 44.2844 1.10405 31.675 4.57764e-05H24.4417V31.4787C36.6217 40.7414 44.507 55.3734 44.5204 71.82C44.5204 71.864 44.5177 71.9093 44.5177 71.9546C44.5177 72.388 44.4977 72.816 44.487 73.2466C44.0297 84.788 39.255 94.3174 37.8617 96.868C36.7937 98.724 35.6284 100.517 34.3497 102.221C47.9817 126.952 74.2964 143.715 104.532 143.715C134.768 143.715 161.082 126.952 174.714 102.221C172.722 99.5667 170.984 96.7147 169.53 93.7001C165.864 85.7161 164.899 77.824 164.672 75.2533C164.596 74.1306 164.544 73 164.544 71.8573C164.544 55.396 172.432 40.7481 184.62 31.4787V4.57764e-05H176.939Z" fill="#0F355C"/>
</svg>
